<?xml version="1.0" encoding="UTF-8"?>
<svg version="1.1" xmlns="http://www.w3.org/2000/svg" width="289" height="289">
<path d="M0 0 C1.03966996 0.93929696 2.07745531 1.88068441 3.11328125 2.82421875 C3.61424316 3.27458496 4.11520508 3.72495117 4.63134766 4.18896484 C18.33734795 16.65585357 28.70611022 31.89722269 36.11328125 48.82421875 C36.39252441 49.45424805 36.67176758 50.08427734 36.95947266 50.73339844 C52.76217514 86.84057386 51.64784105 128.47368339 37.61499023 165.02319336 C30.06137088 183.58733201 17.78195493 198.44056829 4.11328125 212.82421875 C3.46101562 213.5409375 2.80875 214.25765625 2.13671875 214.99609375 C-3.77187745 221.28183439 -10.76531178 226.02699746 -17.88671875 230.82421875 C-19.10294922 231.65953125 -19.10294922 231.65953125 -20.34375 232.51171875 C-50.60636196 252.01546866 -90.88106968 257.60877321 -125.88671875 250.82421875 C-151.82561813 245.02861986 -174.11499746 233.55249399 -193.88671875 215.82421875 C-194.93577192 214.95336804 -195.98786189 214.08616248 -197.04296875 213.22265625 C-220.36802494 193.55015006 -237.49030171 158.32577195 -240.21875 128.15234375 C-243.26183637 87.50540433 -236.14208723 49.07001014 -209.09375 17.33203125 C-208.36542969 16.50445312 -207.63710937 15.676875 -206.88671875 14.82421875 C-206.16871094 13.99664062 -205.45070312 13.1690625 -204.7109375 12.31640625 C-202.47395542 9.78142478 -200.19187697 7.29730241 -197.88671875 4.82421875 C-197.066875 3.92703125 -196.24703125 3.02984375 -195.40234375 2.10546875 C-144.49314646 -51.51486922 -52.93660905 -46.89740796 0 0 Z M-174.88671875 20.82421875 C-175.78777344 21.62472656 -176.68882812 22.42523438 -177.6171875 23.25 C-200.77239503 45.18462295 -212.21594166 76.84976092 -213.08984375 108.3046875 C-213.53577195 140.84051183 -201.7305015 167.33734236 -179.42602539 190.68530273 C-172.48798436 197.75783965 -165.40117439 203.69332496 -156.88671875 208.82421875 C-156.31518066 209.17033203 -155.74364258 209.51644531 -155.15478516 209.87304688 C-147.96571902 214.15690192 -140.62468401 217.50880021 -132.69921875 220.19921875 C-131.99966064 220.43793701 -131.30010254 220.67665527 -130.5793457 220.92260742 C-119.46857742 224.47625396 -108.37042829 225.21424667 -96.76171875 225.19921875 C-96.08240295 225.19900726 -95.40308716 225.19879578 -94.70318604 225.19857788 C-83.62098434 225.16423188 -73.456149 224.20287995 -62.88671875 220.82421875 C-61.77425781 220.47359375 -60.66179687 220.12296875 -59.515625 219.76171875 C-44.88407377 214.60396263 -31.69766852 206.79790967 -19.88671875 196.82421875 C-18.93152344 196.03273437 -17.97632813 195.24125 -16.9921875 194.42578125 C4.14500923 176.15614827 17.85864653 148.646233 20.11328125 120.82421875 C21.92084943 84.28933628 13.23710878 54.71833425 -11.1328125 27.296875 C-31.95460088 5.55816383 -61.06408652 -7.51898493 -91.1640625 -8.37890625 C-122.71766481 -8.81437703 -150.97955971 -0.41706211 -174.88671875 20.82421875 Z " fill="#0C384E" transform="translate(240.88671875,36.17578125)"/>
<path d="M0 0 C5.85973117 5.3574685 8.86873188 13.27187477 11.9375 20.4375 C12.33582031 21.32759766 12.73414063 22.21769531 13.14453125 23.13476562 C15.5044317 28.61053464 17.42650276 33.95459147 17.1875 40 C14.18990581 47.24418595 8.28203973 53.5540807 1.1875 57 C0.5275 57 -0.1325 57 -0.8125 57 C4.18320926 64.96368165 9.21315502 72.72242781 15.1875 80 C15.6309375 80.58910156 16.074375 81.17820312 16.53125 81.78515625 C22.71754821 89.67987984 32.71747481 97.50151936 42.1875 101 C46.23658098 99.65030634 47.77107929 96.88507848 50.1875 93.5625 C56.18085352 85.37452145 56.18085352 85.37452145 60.17578125 84.62890625 C71.27961441 84.31165387 81.13314485 89.32601296 90.875 94.125 C91.55836426 94.46144531 92.24172852 94.79789062 92.94580078 95.14453125 C100.48959965 98.98570079 100.48959965 98.98570079 101.83984375 102.8828125 C103.29088479 114.29236805 99.38282943 128.84385254 94.1875 139 C91.71001144 141.94717911 90.0323911 143.53941409 86.1875 144 C53.51796598 146.14745859 24.97937235 133.57876416 0.51171875 112.71875 C-1.97427365 110.52272561 -4.39921105 108.2754992 -6.8125 106 C-7.63363281 105.25492187 -8.45476562 104.50984375 -9.30078125 103.7421875 C-30.62993567 83.64037167 -41.37280723 53.98895314 -43.03125 25.203125 C-43.3384542 13.06855916 -43.3384542 13.06855916 -39.8125 8 C-34.5309347 4.53801296 -28.49841015 2.79913003 -22.4375 1.25 C-21.60331543 1.03537109 -20.76913086 0.82074219 -19.90966797 0.59960938 C-13.0772854 -1.07950161 -6.79302485 -2.41529773 0 0 Z " fill="#0A364C" transform="translate(114.8125,73)"/>
</svg>
