<?xml version="1.0" encoding="UTF-8"?>
<svg version="1.1" xmlns="http://www.w3.org/2000/svg" width="297" height="228">
<path d="M0 0 C0.794778 -0.00445784 1.589556 -0.00891569 2.40841818 -0.01350862 C3.27571759 -0.01332426 4.143017 -0.01313989 5.03659821 -0.01294994 C5.96259905 -0.01662663 6.8885999 -0.02030332 7.84266138 -0.02409142 C10.95308895 -0.03512566 14.0634831 -0.03897171 17.17392731 -0.04278088 C19.40132503 -0.04904583 21.62872171 -0.05569266 23.85611725 -0.0626936 C31.1788434 -0.08373634 38.50156977 -0.09409765 45.82431793 -0.10406017 C48.34631613 -0.10810795 50.86831422 -0.11222487 53.39031219 -0.11641026 C63.88349576 -0.13328063 74.3766782 -0.14791415 84.86987305 -0.155159 C87.59166719 -0.15706875 90.31346132 -0.1589891 93.03525543 -0.16094494 C93.71170587 -0.16142868 94.38815631 -0.16191242 95.08510524 -0.16241082 C106.03109244 -0.17070237 116.97697004 -0.19602451 127.92290944 -0.22852562 C139.17349692 -0.26165747 150.42403092 -0.27928106 161.67467356 -0.28280324 C167.98632149 -0.28515125 174.29779626 -0.29407935 180.60939789 -0.31926441 C186.55198952 -0.34259334 192.49429456 -0.34675879 198.43692017 -0.33650303 C200.61207026 -0.3360087 202.78723469 -0.34229856 204.96234131 -0.35605907 C220.39646285 -0.44819719 233.13559887 0.04692595 244.98056793 11.13422108 C255.36793275 21.80232549 255.283645 37.48348395 255.23935699 51.4330492 C255.24207453 52.82419994 255.24563971 54.21534923 255.24997711 55.60649586 C255.2590128 59.34824379 255.25559371 63.08988013 255.24921894 66.83162975 C255.24411282 70.76977659 255.24886309 74.70791464 255.25199127 78.6460619 C255.25561759 85.25622724 255.25086701 91.86634772 255.24131012 98.47650623 C255.23042815 106.09052549 255.23395467 113.7044376 255.24496293 121.31845427 C255.254074 127.88614228 255.25530249 134.45379827 255.25008559 141.02149057 C255.2469868 144.93075374 255.24649842 148.83996674 255.25315857 152.74922657 C255.25898732 156.4265491 255.2548354 160.10373509 255.24337006 163.78104305 C255.23951626 165.75386467 255.24536164 167.726698 255.25162506 169.69951344 C255.18334029 184.2578874 253.4035456 197.29000262 243.12119293 208.31000233 C233.06688254 216.8781829 221.87959992 217.28415467 209.31017303 217.2813921 C208.39059073 217.28506879 207.47100842 217.28874547 206.52355999 217.29253358 C203.47089336 217.30346469 200.41826087 217.30739599 197.3655777 217.31122303 C195.16522873 217.31749536 192.9648808 217.32414283 190.764534 217.33113575 C183.56702142 217.35207572 176.36950887 217.36252428 169.17197418 217.37250233 C166.68770525 217.37655275 164.20343642 217.38066975 161.71916771 217.38485241 C150.71989647 217.40278802 139.72062975 217.41717235 128.72134649 217.42502881 C126.71424777 217.42646714 124.70714906 217.42791854 122.70005035 217.42938709 C121.70352851 217.4301127 121.70352851 217.4301127 120.68687492 217.43085297 C109.91842244 217.43915835 99.15008084 217.46451307 88.3816768 217.49696777 C77.30153706 217.53008769 66.22144348 217.54772151 55.14125293 217.55124539 C48.92977047 217.55359306 42.71846398 217.56251817 36.50702858 217.58770657 C30.6653145 217.6110165 24.82389197 217.6152086 18.9821434 217.60494518 C16.84365683 217.60445054 14.70515574 217.61074971 12.56671333 217.62450123 C-13.23256974 217.7810736 -13.23256974 217.7810736 -23.24208832 208.09906483 C-33.42991797 196.83647512 -35.63153169 184.07473111 -35.50527191 169.24701405 C-35.50742406 167.80483119 -35.51131103 166.36265006 -35.51677704 164.92047596 C-35.52637494 161.04442259 -35.51128921 157.16883815 -35.49087095 153.29284143 C-35.4731455 149.21410575 -35.47682799 145.13538123 -35.47759247 141.05661488 C-35.47572655 134.21277612 -35.45845759 127.36911604 -35.43105316 120.52533436 C-35.39958486 112.63803939 -35.38905831 104.75093953 -35.39052427 96.86358631 C-35.39188005 88.42652192 -35.37797464 79.98953165 -35.35963106 71.55248976 C-35.35538985 69.13795688 -35.35395166 66.72343613 -35.35315323 64.30889988 C-35.351129 60.5018637 -35.33879595 56.6949882 -35.31882095 52.88800526 C-35.31303117 51.4993752 -35.31050783 50.11072664 -35.31167603 48.722085 C-35.31889757 34.89991378 -34.32443176 21.69629528 -24.97646332 10.73968983 C-18.26020107 4.33249452 -9.41082371 0.024587 0 0 Z M-5.01943207 30.13422108 C-8.63230526 35.17140005 -7.73691943 42.29373986 -7.01943207 48.13422108 C-5.68259053 51.33204027 -3.72014322 53.01293523 -1.01943207 55.13422108 C0.38435699 56.24797108 0.38435699 56.24797108 1.81650543 57.38422108 C4.01616266 59.10074417 6.23886559 60.78289391 8.47275543 62.45453358 C11.97973866 65.0998789 15.33285588 67.90188276 18.66806793 70.75922108 C23.22842037 74.65995958 27.84561721 78.46572419 32.54697418 82.19672108 C39.80824866 87.97776786 46.94071663 93.9218758 54.10556793 99.82172108 C54.8272818 100.41589832 55.54899567 101.01007557 56.29257965 101.62225819 C59.98527963 104.66342492 63.67506924 107.70800874 67.35947418 110.75922108 C70.88596651 113.67839738 74.42281771 116.58457024 77.96689606 119.48236561 C79.2895954 120.56740243 80.60873347 121.65679799 81.92392731 122.7509203 C91.39737992 130.62664813 99.85429524 137.2263827 112.78134918 136.69672108 C124.34023965 134.66438869 133.06279351 127.03834306 141.50498199 119.44037342 C143.64190949 117.54881781 145.8668368 115.77831303 148.10556793 114.00922108 C157.07134085 106.89398369 165.87448213 99.57738089 174.70786285 92.299016 C180.45490741 87.56445736 186.21403706 82.84503322 191.98056793 78.13422108 C193.81401829 76.63436412 195.64734964 75.13436168 197.48056793 73.63422108 C198.38806793 72.89301014 199.29556793 72.1517992 200.23056793 71.38812733 C202.06901877 69.88132884 203.90234452 68.36825616 205.73056793 66.84906483 C211.24598679 62.28160858 216.8543401 58.00396379 222.76572418 53.95843983 C226.19697597 51.13234708 226.86439083 49.26762325 227.31650543 44.85687733 C227.32939606 43.64902576 227.34228668 42.4411742 227.35556793 41.19672108 C227.38392731 39.99144764 227.41228668 38.7861742 227.44150543 37.54437733 C226.90254154 33.55695804 225.78121811 31.96089961 222.98056793 29.13422108 C219.67110298 27.4794886 215.97714364 27.99392061 212.33899689 28.00050831 C211.43356168 27.99824275 210.52812647 27.9959772 209.59525383 27.99364299 C206.54285229 27.98728216 203.49049492 27.98813368 200.43808746 27.98895741 C198.25711764 27.9859672 196.07614834 27.982565 193.89517975 27.97877979 C187.95719963 27.96992127 182.0192339 27.9676009 176.08124781 27.96696401 C171.13074906 27.96601637 166.18025369 27.96233975 161.22975624 27.95879191 C150.22103772 27.95110633 139.21232596 27.94812393 128.20360495 27.94879726 C127.21220797 27.9488572 127.21220797 27.9488572 126.20078278 27.94891834 C125.53904654 27.94895922 124.87731031 27.9490001 124.19552146 27.94904222 C114.13736601 27.94942342 104.07924159 27.94162645 94.02109528 27.92841053 C82.34769182 27.91312471 70.6743113 27.90465131 59.00089729 27.90537375 C52.81919973 27.90562921 46.63754188 27.90275206 40.45585251 27.8921957 C34.64305406 27.8825409 28.83033349 27.88241751 23.01753235 27.88971233 C20.88095868 27.89076145 18.74438022 27.888376 16.60781479 27.88235188 C13.69715261 27.87467512 10.78676227 27.87924807 7.87610626 27.88698292 C7.02533135 27.88183935 6.17455643 27.87669579 5.29800045 27.87139636 C-0.18332097 27.8561939 -0.18332097 27.8561939 -5.01943207 30.13422108 Z M208.16806793 99.00922108 C202.99904891 103.47729622 197.70790945 107.73769358 192.30381012 111.91669178 C187.87675603 115.36646443 183.63308573 118.99202479 179.41806793 122.69672108 C173.83314479 127.60337747 168.10223902 132.19165349 162.16416168 136.66156483 C159.36405366 138.79805845 156.70897639 141.07048213 154.05918121 143.38934803 C142.13592988 153.79602991 129.07262078 161.04323444 112.98056793 162.13422108 C111.78431793 162.21672108 110.58806793 162.29922108 109.35556793 162.38422108 C92.0056359 161.9791643 77.45205241 154.07489953 64.85947418 142.72406483 C62.46304503 140.56825407 60.04805103 138.57730719 57.48056793 136.63422108 C53.81751089 133.83188235 50.29735931 130.88084014 46.79306793 127.88422108 C42.29410325 124.03917185 37.71976345 120.32325258 33.04306793 116.69672108 C27.5688767 112.4462981 22.27785527 108.02162613 17.03525543 103.48968983 C5.84033341 91.95553407 5.84033341 91.95553407 -7.01943207 85.13422108 C-7.0657384 97.8427358 -7.10129264 110.5512305 -7.12305641 123.25981236 C-7.13350103 129.16068721 -7.14767269 135.06150441 -7.17031097 140.96234608 C-7.19201504 146.65519497 -7.20399558 152.34798836 -7.20918655 158.04087543 C-7.21288668 160.21462599 -7.22011194 162.38837344 -7.23089218 164.56210041 C-7.2453746 167.6028094 -7.24741136 170.64328793 -7.24648285 173.68402576 C-7.2536734 174.58601704 -7.26086395 175.48800831 -7.2682724 176.41733265 C-7.26552307 177.2474184 -7.26277374 178.07750416 -7.2599411 178.93274403 C-7.26178469 179.65174255 -7.26362827 180.37074108 -7.26552773 181.11152744 C-6.87764549 184.29958425 -6.00016591 186.36323357 -3.44956207 188.36834812 C0.27900054 189.54343146 3.99240028 189.40851645 7.86264801 189.38818836 C8.76979207 189.39130834 9.67693613 189.39442832 10.6115694 189.39764285 C13.65781167 189.40563388 16.70385535 189.39929486 19.75009918 189.39301014 C21.93136461 189.39571951 24.11262913 189.39928013 26.29389191 189.40363026 C32.22350932 189.41276295 38.15305728 189.40920636 44.08267593 189.40287209 C50.28147065 189.39781666 56.48025932 189.40250226 62.67905426 189.40564442 C73.75707009 189.40951876 84.83505513 189.40329446 95.91306603 189.39312574 C105.95869433 189.38419017 116.00427641 189.38574219 126.04990387 189.39496326 C137.71380392 189.40562724 149.37767505 189.40965114 161.04157925 189.40373874 C167.21653542 189.40061697 173.39145974 189.40021537 179.56641388 189.40681171 C185.37103833 189.41257907 191.1755753 189.40859943 196.98019028 189.3970232 C199.1135379 189.39437335 201.24689285 189.39514722 203.38023758 189.39954853 C206.28642121 189.40499255 209.19232235 189.39818367 212.09848785 189.38818836 C212.94789853 189.39264981 213.79730921 189.39711125 214.6724596 189.40170789 C220.1553687 189.42364632 220.1553687 189.42364632 224.98056793 187.13422108 C227.71474794 182.64897077 227.24828473 177.65136057 227.20761871 172.57050037 C227.20791077 171.61392033 227.20820282 170.65734028 227.20850372 169.67177296 C227.20711296 166.51723557 227.19156352 163.36293584 227.17588043 160.20843983 C227.17214941 158.01840309 227.16930286 155.82836469 227.16730499 153.63832569 C227.15967562 147.87944382 227.140033 142.12066312 227.11789703 136.36182117 C227.09742369 130.48323402 227.08830008 124.60463049 227.07822418 118.72601795 C227.05678653 107.19537459 227.02265889 95.66480625 226.98056793 84.13422108 C221.8939371 84.13422108 212.29317314 95.44217082 208.16806793 99.00922108 Z " fill="#09364D" transform="translate(41.019432067871094,10.865778923034668)"/>
</svg>
