<?xml version="1.0" encoding="UTF-8"?>
<svg version="1.1" xmlns="http://www.w3.org/2000/svg" width="319" height="304">
<path d="M0 0 C26.98212118 24.93008283 43.53896976 61.25049503 45.00097656 97.84033203 C45.49672997 118.82199664 45.67149259 140.51867531 31.2265625 157.37109375 C21.2436196 167.20479 7.89639078 173.32299244 -6.125 173.6875 C-7.40375 173.77 -8.6825 173.8525 -10 173.9375 C-24.03455499 173.65568163 -36.29345073 166.94685688 -46.359375 157.640625 C-48.125 155.6875 -48.125 155.6875 -48.125 153.6875 C-52.77982076 155.30656809 -55.99554609 157.29153693 -59.75 160.5 C-72.95164963 171.31580934 -90.28852952 175.18089289 -107.125 173.6875 C-126.60473901 170.87980577 -142.48140381 161.86407253 -155.125 146.6875 C-162.52769782 136.01890609 -167.55669038 123.80598042 -168.125 110.6875 C-168.1765625 109.66398438 -168.228125 108.64046875 -168.28125 107.5859375 C-168.75349166 89.83752193 -163.79495448 73.27224189 -151.625 60.125 C-149.82592362 58.27156347 -147.98641867 56.4801809 -146.125 54.6875 C-145.46886719 54.01203125 -144.81273437 53.3365625 -144.13671875 52.640625 C-132.19719912 41.08460172 -115.28294682 36.70357756 -99.125 36.6875 C-85.6249459 37.45693314 -72.32503669 40.69975399 -61.2734375 48.74609375 C-59.09131368 49.97831073 -59.09131368 49.97831073 -56.5625 48.921875 C-55.758125 48.51453125 -54.95375 48.1071875 -54.125 47.6875 C-49.01391073 45.88915378 -45.40479128 45.24755692 -40.125 46.6875 C-36.02105668 49.52869153 -33.3256365 52.221983 -31.125 56.6875 C-30.74645996 59.80302429 -30.74645996 59.80302429 -30.74023438 63.33862305 C-30.7348616 63.98653305 -30.72948883 64.63444305 -30.72395325 65.30198669 C-30.71420599 66.70256771 -30.71122186 68.10320889 -30.71430969 69.50382042 C-30.71881101 71.7293835 -30.70472055 73.95416097 -30.68591309 76.17964172 C-30.64920194 80.91141508 -30.63544833 85.64310529 -30.625 90.375 C-30.61287219 95.84519961 -30.59103201 101.31501541 -30.54499817 106.78504372 C-30.53155765 108.9618913 -30.53557614 111.13823741 -30.54040527 113.31510925 C-30.49207604 125.92620705 -30.49207604 125.92620705 -25.29296875 137.125 C-18.93783019 142.13891602 -13.884044 144.17997231 -5.71875 144.0078125 C0.48084484 143.24219988 6.53375316 140.15643057 10.875 135.6875 C20.64429212 116.49781905 15.60031741 87.45688714 9.25 67.5625 C-1.92002852 35.06303607 -24.42984934 14.39084021 -54.46044922 -1.01953125 C-79.6107488 -13.22367149 -110.91755115 -13.16748272 -137.125 -4.3125 C-151.13379486 0.95314475 -163.70016604 7.96960219 -175.125 17.6875 C-175.81207031 18.24050781 -176.49914062 18.79351562 -177.20703125 19.36328125 C-197.88952788 36.45591653 -211.42266149 63.68845688 -214.84375 90.0703125 C-217.3697912 122.5580091 -210.18904708 154.14341246 -188.93359375 179.4765625 C-167.78767979 203.89983765 -140.54713655 216.95520844 -108.515625 220.171875 C-107.75942871 220.24962158 -107.00323242 220.32736816 -106.22412109 220.4074707 C-104.79107935 220.54762879 -103.3564046 220.6723743 -101.92041016 220.77807617 C-96.65493243 221.27207795 -93.41789075 222.75590045 -89.125 225.6875 C-86.06927006 230.81324055 -85.56377294 234.88815372 -86.125 240.6875 C-87.75981581 244.36583556 -89.62282657 246.68625804 -93.125 248.6875 C-121.44183015 254.54615451 -154.58335172 243.06218054 -178.22460938 227.94824219 C-212.1891417 205.41575954 -234.29039056 171.70929531 -242.875 132.0625 C-244.26897891 124.62007023 -244.85901918 117.24780329 -245.125 109.6875 C-245.17785156 108.58148438 -245.23070312 107.47546875 -245.28515625 106.3359375 C-245.89399794 83.72938075 -239.97686975 60.89912126 -230.125 40.6875 C-229.83286621 40.06423828 -229.54073242 39.44097656 -229.23974609 38.79882812 C-224.37810699 28.47958975 -217.98667952 19.9804988 -210.55957031 11.35546875 C-209.3854709 9.9903484 -208.23257548 8.60701667 -207.0859375 7.21875 C-190.57136081 -12.50482026 -167.51700247 -25.94941972 -143.125 -33.3125 C-142.46677246 -33.51214355 -141.80854492 -33.71178711 -141.13037109 -33.91748047 C-89.74318644 -49.06896438 -39.67638565 -34.18657129 0 0 Z M-133.125 80.6875 C-135.24224993 83.89064626 -136.78118996 87.09618235 -138.125 90.6875 C-138.36863281 91.33203125 -138.61226563 91.9765625 -138.86328125 92.640625 C-142.12374344 103.19831209 -140.60133462 114.49657729 -135.87109375 124.28125 C-129.96214752 134.9720955 -120.87520116 141.55822297 -109.1875 145 C-97.69635981 147.43751458 -87.81321592 145.18427478 -77.8046875 139.4453125 C-68.75330368 133.50781582 -62.63933819 124.76172879 -60.41015625 114.0703125 C-58.93017343 101.70333278 -59.9046583 91.17065806 -67.3125 80.9375 C-75.08844111 71.70872913 -84.2397975 66.71338679 -96.125 64.6875 C-110.91168677 63.94816566 -123.23886148 69.62485832 -133.125 80.6875 Z " fill="#0B384E" transform="translate(265.125,49.3125)"/>
<path d="M0 0 C0.66 0.33 1.32 0.66 2 1 C-4.93 7.93 -11.86 14.86 -19 22 C-19 17.83256273 -16.7220201 16.1175327 -14 13.25 C-13.50395264 12.71793945 -13.00790527 12.18587891 -12.49682617 11.63769531 C-8.56892151 7.476431 -4.4406485 3.61359362 0 0 Z " fill="#4E6F7F" transform="translate(73,42)"/>
</svg>
