<svg version="1.1" id="Layer_1" xmlns="http://www.w3.org/2000/svg" xmlns:xlink="http://www.w3.org/1999/xlink" x="0px" y="0px"
	 width="100%" viewBox="0 0 1081 253" enable-background="new 0 0 1081 253" xml:space="preserve">
<path fill="#023148" opacity="1.000000" stroke="none" 
	d="
M727.000000,254.000000 
	C484.666718,254.000000 242.833420,254.000000 1.000097,254.000000 
	C1.000065,169.666718 1.000065,85.333450 1.000032,1.000131 
	C361.333221,1.000087 721.666443,1.000087 1081.999756,1.000044 
	C1081.999756,85.333199 1081.999756,169.666397 1081.999878,253.999786 
	C963.833313,254.000000 845.666687,254.000000 727.000000,254.000000 
M129.719498,114.855469 
	C136.170837,134.972458 142.669571,155.074493 149.018555,175.223740 
	C149.894272,178.002930 151.070328,179.233871 154.173126,179.082367 
	C159.823654,178.806442 165.505722,178.818222 171.158081,179.074646 
	C174.485809,179.225616 175.636032,178.107681 176.301544,174.800079 
	C180.009033,156.374008 184.043121,138.013809 187.937241,119.625092 
	C191.267044,103.901215 194.558853,88.169281 197.912048,72.228943 
	C191.044205,72.228943 184.609787,72.228943 177.811310,72.228943 
	C172.451782,98.021164 167.123077,123.665100 161.540161,150.532410 
	C153.030563,123.623222 144.881012,97.852554 136.704254,71.995872 
	C129.128372,71.995872 121.968842,72.154907 114.821892,71.924316 
	C111.572205,71.819466 110.279312,72.739975 109.607590,76.098328 
	C105.888100,94.694374 101.872658,113.231331 97.941605,131.784927 
	C94.639603,147.369583 91.314362,162.949295 87.940002,178.810425 
	C94.869156,178.810425 101.323395,178.810425 108.282822,178.810425 
	C113.621552,152.391296 118.947250,126.036644 124.436783,98.871201 
	C126.247009,104.416489 127.830002,109.265724 129.719498,114.855469 
M943.620056,70.324730 
	C932.776001,70.869080 922.336670,73.162285 913.865295,80.252380 
	C891.382446,99.069183 885.624756,123.872948 889.527344,151.717239 
	C890.590881,159.305969 894.488831,165.669754 900.109741,171.022385 
	C914.388733,184.619995 947.227478,184.011963 963.892700,166.218323 
	C981.581177,147.332169 985.984985,124.328094 982.773621,99.501526 
	C981.530640,89.892723 976.491150,82.025093 968.303589,76.545349 
	C961.126038,71.741516 952.878967,70.699089 943.620056,70.324730 
M841.732788,146.228928 
	C839.451721,156.959564 837.170654,167.690201 834.765869,179.002975 
	C841.129761,179.002975 847.094971,178.815948 853.040649,179.075806 
	C856.400757,179.222702 857.498047,178.034729 858.164246,174.766663 
	C862.851074,151.776077 867.804504,128.839935 872.653564,105.882362 
	C875.008789,94.731552 877.322632,83.572014 879.661194,72.387573 
	C871.894043,72.387573 864.654236,72.387573 857.427307,72.387573 
	C854.442749,86.382568 851.537720,100.004860 848.639648,113.594086 
	C836.981384,113.594086 825.767334,113.594086 814.230896,113.594086 
	C817.156616,99.613823 820.002930,86.013145 822.935608,71.999832 
	C816.110168,71.999832 809.782471,71.812317 803.483948,72.157730 
	C802.220947,72.226990 800.303284,74.146996 799.986450,75.514542 
	C797.320496,87.023567 794.952820,98.601768 792.503418,110.160858 
	C787.675964,132.942047 782.853699,155.724335 777.924194,179.002411 
	C784.447571,179.002411 790.595764,178.845657 796.729980,179.069229 
	C799.751526,179.179337 800.664368,177.993835 801.179932,175.189301 
	C802.623352,167.336182 804.411804,159.546021 806.091553,151.736923 
	C807.438293,145.476212 808.825256,139.224152 810.123779,133.290817 
	C821.876160,133.290817 832.945862,133.290817 844.455078,133.290817 
	C843.538269,137.614944 842.713013,141.507141 841.732788,146.228928 
M520.104553,230.632385 
	C528.417480,216.207321 536.245544,201.470947 545.230469,187.477341 
	C550.381165,179.455444 545.903625,172.777802 537.105652,173.024567 
	C520.453613,173.491653 503.779083,173.158630 487.113892,173.159546 
	C473.448456,173.160294 459.781677,173.050690 446.118073,173.208893 
	C438.353790,173.298782 435.239716,178.247894 438.725525,184.698181 
	C452.206421,209.643600 472.094666,227.676331 498.106201,238.804108 
	C512.029663,244.760574 512.140259,244.502090 520.104553,230.632385 
M638.804626,196.055283 
	C641.250916,194.718903 644.693542,194.010757 645.992371,191.950882 
	C662.515808,165.744324 667.650940,137.218414 662.441528,106.765236 
	C661.290527,100.036705 659.232422,98.212326 652.485107,98.188377 
	C633.164124,98.119789 613.842407,98.100060 594.521606,98.192490 
	C585.703003,98.234673 582.439575,103.820938 586.786011,111.398300 
	C601.944458,137.824692 617.144165,164.227829 632.482422,190.549942 
	C633.732605,192.695389 636.151123,194.160080 638.804626,196.055283 
M472.705536,63.825237 
	C479.780975,76.064796 486.809967,88.331528 493.949646,100.533516 
	C498.080994,107.594147 504.480194,107.655205 508.565765,100.617249 
	C524.092957,73.869598 539.561340,47.087646 554.985718,20.280586 
	C558.676453,13.866206 555.722473,8.453032 548.317261,8.346440 
	C517.323547,7.900317 489.771667,17.314022 466.143097,37.599689 
	C461.698364,41.415585 461.346069,44.182762 464.301575,49.395584 
	C466.926514,54.025448 469.622345,58.615124 472.705536,63.825237 
M555.565552,199.056000 
	C548.587219,211.173706 541.561523,223.264465 534.647705,235.418900 
	C530.257080,243.137650 533.078003,248.027664 541.788513,248.179092 
	C572.196045,248.707687 598.955811,239.006027 622.262451,219.575516 
	C627.316772,215.361771 627.875122,212.783737 624.609436,207.073456 
	C615.020386,190.306473 605.403076,173.555267 595.703186,156.852280 
	C590.900146,148.581482 584.719482,148.698685 579.965454,156.939941 
	C571.980591,170.781830 563.940186,184.591644 555.565552,199.056000 
M452.884918,61.498581 
	C447.856140,59.133450 444.735901,61.449566 442.209778,65.672981 
	C426.525696,91.895256 421.285889,120.027367 426.706909,150.107513 
	C427.900360,156.729843 429.658966,158.149323 436.425964,158.159164 
	C455.736664,158.187210 475.047424,158.183807 494.358124,158.162537 
	C503.806000,158.152130 506.738251,152.860229 501.929901,144.505188 
	C490.310425,124.315010 478.723755,104.105614 467.005249,83.972969 
	C462.668762,76.522736 458.000427,69.265656 452.884918,61.498581 
M650.081421,80.664635 
	C653.409485,77.215981 651.586304,73.920128 649.752136,70.655754 
	C634.784302,44.017475 612.893372,25.546318 584.188416,15.124988 
	C578.683533,13.126433 575.987732,13.958851 572.944214,19.167356 
	C562.952881,36.266003 553.001709,53.389118 543.192261,70.592484 
	C539.129700,77.717216 542.416077,83.145065 550.615662,83.154533 
	C581.426514,83.190102 612.237488,83.207794 643.047791,83.083580 
	C645.194946,83.074928 647.337158,81.854393 650.081421,80.664635 
M207.178009,179.003113 
	C210.727570,179.707779 212.472260,177.953918 213.876892,174.822693 
	C216.667923,168.600830 219.805267,162.529465 222.961945,156.480698 
	C223.572876,155.310028 224.910172,153.709000 225.938110,153.689926 
	C236.850967,153.487167 247.769028,153.564163 258.863556,153.564163 
	C259.531738,162.355148 260.147766,170.459839 260.777039,178.738907 
	C268.017120,178.738907 274.937592,178.738907 282.427765,178.738907 
	C278.851105,142.909515 275.306213,107.398247 271.722137,71.494308 
	C263.742645,71.494308 256.260040,71.691650 248.795990,71.405334 
	C245.412888,71.275558 243.789139,72.574242 242.307831,75.433067 
	C226.616714,105.715881 210.799438,135.933319 195.019821,166.170288 
	C192.903748,170.225128 190.803909,174.288452 188.356369,179.003143 
	C194.976852,179.003143 200.610992,179.003143 207.178009,179.003113 
M316.889740,178.899857 
	C317.610748,176.794205 318.544617,174.735077 319.016602,172.575027 
	C321.284576,162.195435 323.427765,151.788605 325.612640,141.403854 
	C331.749939,140.957687 337.571014,140.852600 343.297211,140.061188 
	C364.055725,137.192200 376.525757,125.432793 378.472748,107.230667 
	C380.527588,88.020332 371.297363,75.218941 352.136444,72.997055 
	C340.991150,71.704651 329.573395,72.761902 317.822632,72.761902 
	C310.445160,107.665291 302.961517,143.070892 295.369995,178.986877 
	C302.706696,178.986877 309.347809,178.986877 316.889740,178.899857 
M1072.230225,119.588837 
	C1072.965088,117.561569 1073.939209,115.586815 1074.397339,113.498840 
	C1078.619751,94.251022 1072.908691,74.920479 1047.592163,72.644859 
	C1036.887817,71.682693 1026.025024,72.484451 1014.931702,72.484451 
	C1007.488647,107.756310 1000.022156,143.139313 992.499878,178.786652 
	C1000.467773,178.786652 1007.590210,178.786652 1014.811096,178.786652 
	C1017.487427,166.113434 1020.124512,153.625961 1022.703430,141.414093 
	C1029.088501,140.935516 1034.945801,140.854309 1040.686401,139.994034 
	C1053.911865,138.012161 1065.154419,132.610336 1072.230225,119.588837 
M75.922729,73.481590 
	C67.043594,72.661964 58.018196,70.406693 49.312920,71.293587 
	C23.837021,73.889076 11.195297,101.813736 26.301447,121.329735 
	C30.002262,126.110924 35.314888,129.630188 39.794956,133.827316 
	C43.044533,136.871658 46.808327,139.647537 49.168266,143.301682 
	C53.836613,150.530182 50.536987,158.039093 42.299450,160.528168 
	C34.246960,162.961319 26.448360,161.419067 18.782200,158.878784 
	C15.109514,157.661804 11.604367,155.939194 7.492028,154.223969 
	C7.492028,159.211365 7.898001,163.572006 7.389930,167.823395 
	C6.745504,173.215759 9.378779,175.587006 13.946211,177.185394 
	C25.473516,181.219467 37.234531,181.564651 48.858829,178.513275 
	C60.819180,175.373688 69.810112,168.275421 72.796303,155.603149 
	C75.894165,142.456924 72.368782,131.177444 61.916653,122.421104 
	C57.714989,118.901138 53.051521,115.937050 48.782516,112.491631 
	C43.490715,108.220741 41.679855,102.199615 43.784229,96.981445 
	C45.803940,91.973198 51.072510,88.705803 57.713776,89.453308 
	C63.112400,90.060944 68.392517,91.751778 73.710747,93.022659 
	C75.090164,93.352303 76.415459,93.908394 78.025681,94.447556 
	C80.688881,88.701180 83.178467,83.329414 85.861389,77.540497 
	C82.451584,76.141945 79.558746,74.955421 75.922729,73.481590 
M739.917908,155.044296 
	C735.551453,161.454803 728.779175,162.482834 722.156067,161.468719 
	C713.946106,160.211624 705.955627,157.520477 697.492920,155.352112 
	C697.492920,159.693741 697.726257,164.655350 697.412231,169.582062 
	C697.197083,172.958237 698.446594,174.735428 701.436401,176.059464 
	C713.704773,181.492630 726.411377,181.636673 739.047302,178.447678 
	C750.873169,175.463120 759.734375,168.344727 762.748169,155.965759 
	C765.868530,143.149719 762.798645,131.826157 752.563354,123.044449 
	C748.409180,119.480263 743.762146,116.497124 739.488708,113.063736 
	C733.491577,108.245537 731.544739,102.434158 733.812317,96.915100 
	C736.020813,91.539856 741.795166,88.442551 749.257812,89.564407 
	C755.435547,90.493103 761.475037,92.341644 768.190552,93.927849 
	C770.540649,88.911285 773.106445,83.434265 775.767700,77.753365 
	C763.081787,71.018761 750.150330,68.936081 736.677673,71.572044 
	C723.978699,74.056610 714.727600,81.168671 711.229553,94.064194 
	C707.723328,106.989792 711.409851,118.076347 721.395203,126.928177 
	C725.744507,130.783752 730.527161,134.147079 734.938293,137.937317 
	C739.969360,142.260284 742.594299,147.519257 739.917908,155.044296 
z"/>
<path fill="#8CC8E4" opacity="1.000000" stroke="none" 
	d="
M129.566254,114.485214 
	C127.830002,109.265724 126.247009,104.416489 124.436783,98.871201 
	C118.947250,126.036644 113.621552,152.391296 108.282822,178.810425 
	C101.323395,178.810425 94.869156,178.810425 87.940002,178.810425 
	C91.314362,162.949295 94.639603,147.369583 97.941605,131.784927 
	C101.872658,113.231331 105.888100,94.694374 109.607590,76.098328 
	C110.279312,72.739975 111.572205,71.819466 114.821892,71.924316 
	C121.968842,72.154907 129.128372,71.995872 136.704254,71.995872 
	C144.881012,97.852554 153.030563,123.623222 161.540161,150.532410 
	C167.123077,123.665100 172.451782,98.021164 177.811310,72.228943 
	C184.609787,72.228943 191.044205,72.228943 197.912048,72.228943 
	C194.558853,88.169281 191.267044,103.901215 187.937241,119.625092 
	C184.043121,138.013809 180.009033,156.374008 176.301544,174.800079 
	C175.636032,178.107681 174.485809,179.225616 171.158081,179.074646 
	C165.505722,178.818222 159.823654,178.806442 154.173126,179.082367 
	C151.070328,179.233871 149.894272,178.002930 149.018555,175.223740 
	C142.669571,155.074493 136.170837,134.972458 129.566254,114.485214 
z"/>
<path fill="#8CC8E4" opacity="1.000000" stroke="none" 
	d="
M944.060913,70.314102 
	C952.878967,70.699089 961.126038,71.741516 968.303589,76.545349 
	C976.491150,82.025093 981.530640,89.892723 982.773621,99.501526 
	C985.984985,124.328094 981.581177,147.332169 963.892700,166.218323 
	C947.227478,184.011963 914.388733,184.619995 900.109741,171.022385 
	C894.488831,165.669754 890.590881,159.305969 889.527344,151.717239 
	C885.624756,123.872948 891.382446,99.069183 913.865295,80.252380 
	C922.336670,73.162285 932.776001,70.869080 944.060913,70.314102 
M960.809204,106.123978 
	C958.462524,87.252220 940.197388,85.849892 929.683350,93.678200 
	C927.174744,95.546013 924.728455,97.703354 922.852783,100.181198 
	C912.776855,113.492340 909.805542,128.884644 911.336548,145.051819 
	C912.436218,156.663956 920.191895,162.237366 931.788391,161.209641 
	C941.115479,160.383011 947.345947,154.822037 951.991699,147.327576 
	C959.647888,134.976669 961.572388,121.257545 960.809204,106.123978 
z"/>
<path fill="#8DC8E4" opacity="1.000000" stroke="none" 
	d="
M841.810303,145.814117 
	C842.713013,141.507141 843.538269,137.614944 844.455078,133.290817 
	C832.945862,133.290817 821.876160,133.290817 810.123779,133.290817 
	C808.825256,139.224152 807.438293,145.476212 806.091553,151.736923 
	C804.411804,159.546021 802.623352,167.336182 801.179932,175.189301 
	C800.664368,177.993835 799.751526,179.179337 796.729980,179.069229 
	C790.595764,178.845657 784.447571,179.002411 777.924194,179.002411 
	C782.853699,155.724335 787.675964,132.942047 792.503418,110.160858 
	C794.952820,98.601768 797.320496,87.023567 799.986450,75.514542 
	C800.303284,74.146996 802.220947,72.226990 803.483948,72.157730 
	C809.782471,71.812317 816.110168,71.999832 822.935608,71.999832 
	C820.002930,86.013145 817.156616,99.613823 814.230896,113.594086 
	C825.767334,113.594086 836.981384,113.594086 848.639648,113.594086 
	C851.537720,100.004860 854.442749,86.382568 857.427307,72.387573 
	C864.654236,72.387573 871.894043,72.387573 879.661194,72.387573 
	C877.322632,83.572014 875.008789,94.731552 872.653564,105.882362 
	C867.804504,128.839935 862.851074,151.776077 858.164246,174.766663 
	C857.498047,178.034729 856.400757,179.222702 853.040649,179.075806 
	C847.094971,178.815948 841.129761,179.002975 834.765869,179.002975 
	C837.170654,167.690201 839.451721,156.959564 841.810303,145.814117 
z"/>
<path fill="#8CC8E4" opacity="1.000000" stroke="none" 
	d="
M519.923828,230.950562 
	C512.140259,244.502090 512.029663,244.760574 498.106201,238.804108 
	C472.094666,227.676331 452.206421,209.643600 438.725525,184.698181 
	C435.239716,178.247894 438.353790,173.298782 446.118073,173.208893 
	C459.781677,173.050690 473.448456,173.160294 487.113892,173.159546 
	C503.779083,173.158630 520.453613,173.491653 537.105652,173.024567 
	C545.903625,172.777802 550.381165,179.455444 545.230469,187.477341 
	C536.245544,201.470947 528.417480,216.207321 519.923828,230.950562 
z"/>
<path fill="#8DC9E5" opacity="1.000000" stroke="none" 
	d="
M638.415649,195.998184 
	C636.151123,194.160080 633.732605,192.695389 632.482422,190.549942 
	C617.144165,164.227829 601.944458,137.824692 586.786011,111.398300 
	C582.439575,103.820938 585.703003,98.234673 594.521606,98.192490 
	C613.842407,98.100060 633.164124,98.119789 652.485107,98.188377 
	C659.232422,98.212326 661.290527,100.036705 662.441528,106.765236 
	C667.650940,137.218414 662.515808,165.744324 645.992371,191.950882 
	C644.693542,194.010757 641.250916,194.718903 638.415649,195.998184 
z"/>
<path fill="#8DC9E5" opacity="1.000000" stroke="none" 
	d="
M472.496216,63.523884 
	C469.622345,58.615124 466.926514,54.025448 464.301575,49.395584 
	C461.346069,44.182762 461.698364,41.415585 466.143097,37.599689 
	C489.771667,17.314022 517.323547,7.900317 548.317261,8.346440 
	C555.722473,8.453032 558.676453,13.866206 554.985718,20.280586 
	C539.561340,47.087646 524.092957,73.869598 508.565765,100.617249 
	C504.480194,107.655205 498.080994,107.594147 493.949646,100.533516 
	C486.809967,88.331528 479.780975,76.064796 472.496216,63.523884 
z"/>
<path fill="#8DC9E5" opacity="1.000000" stroke="none" 
	d="
M555.744324,198.735474 
	C563.940186,184.591644 571.980591,170.781830 579.965454,156.939941 
	C584.719482,148.698685 590.900146,148.581482 595.703186,156.852280 
	C605.403076,173.555267 615.020386,190.306473 624.609436,207.073456 
	C627.875122,212.783737 627.316772,215.361771 622.262451,219.575516 
	C598.955811,239.006027 572.196045,248.707687 541.788513,248.179092 
	C533.078003,248.027664 530.257080,243.137650 534.647705,235.418900 
	C541.561523,223.264465 548.587219,211.173706 555.744324,198.735474 
z"/>
<path fill="#8DC9E5" opacity="1.000000" stroke="none" 
	d="
M453.184174,61.709534 
	C458.000427,69.265656 462.668762,76.522736 467.005249,83.972969 
	C478.723755,104.105614 490.310425,124.315010 501.929901,144.505188 
	C506.738251,152.860229 503.806000,158.152130 494.358124,158.162537 
	C475.047424,158.183807 455.736664,158.187210 436.425964,158.159164 
	C429.658966,158.149323 427.900360,156.729843 426.706909,150.107513 
	C421.285889,120.027367 426.525696,91.895256 442.209778,65.672981 
	C444.735901,61.449566 447.856140,59.133450 453.184174,61.709534 
z"/>
<path fill="#8DC9E5" opacity="1.000000" stroke="none" 
	d="
M649.781555,80.931030 
	C647.337158,81.854393 645.194946,83.074928 643.047791,83.083580 
	C612.237488,83.207794 581.426514,83.190102 550.615662,83.154533 
	C542.416077,83.145065 539.129700,77.717216 543.192261,70.592484 
	C553.001709,53.389118 562.952881,36.266003 572.944214,19.167356 
	C575.987732,13.958851 578.683533,13.126433 584.188416,15.124988 
	C612.893372,25.546318 634.784302,44.017475 649.752136,70.655754 
	C651.586304,73.920128 653.409485,77.215981 649.781555,80.931030 
z"/>
<path fill="#8DC8E4" opacity="1.000000" stroke="none" 
	d="
M206.711578,179.003128 
	C200.610992,179.003143 194.976852,179.003143 188.356369,179.003143 
	C190.803909,174.288452 192.903748,170.225128 195.019821,166.170288 
	C210.799438,135.933319 226.616714,105.715881 242.307831,75.433067 
	C243.789139,72.574242 245.412888,71.275558 248.795990,71.405334 
	C256.260040,71.691650 263.742645,71.494308 271.722137,71.494308 
	C275.306213,107.398247 278.851105,142.909515 282.427765,178.738907 
	C274.937592,178.738907 268.017120,178.738907 260.777039,178.738907 
	C260.147766,170.459839 259.531738,162.355148 258.863556,153.564163 
	C247.769028,153.564163 236.850967,153.487167 225.938110,153.689926 
	C224.910172,153.709000 223.572876,155.310028 222.961945,156.480698 
	C219.805267,162.529465 216.667923,168.600830 213.876892,174.822693 
	C212.472260,177.953918 210.727570,179.707779 206.711578,179.003128 
M256.954559,121.430550 
	C256.320129,111.146049 255.685684,100.861549 254.991196,89.603531 
	C247.667404,105.016769 240.827866,119.410896 233.831680,134.134644 
	C242.188721,134.134644 249.861084,134.134644 257.789337,134.134644 
	C257.509216,129.930054 257.256927,126.143074 256.954559,121.430550 
z"/>
<path fill="#8CC8E4" opacity="1.000000" stroke="none" 
	d="
M316.439331,178.943359 
	C309.347809,178.986877 302.706696,178.986877 295.369995,178.986877 
	C302.961517,143.070892 310.445160,107.665291 317.822632,72.761902 
	C329.573395,72.761902 340.991150,71.704651 352.136444,72.997055 
	C371.297363,75.218941 380.527588,88.020332 378.472748,107.230667 
	C376.525757,125.432793 364.055725,137.192200 343.297211,140.061188 
	C337.571014,140.852600 331.749939,140.957687 325.612640,141.403854 
	C323.427765,151.788605 321.284576,162.195435 319.016602,172.575027 
	C318.544617,174.735077 317.610748,176.794205 316.439331,178.943359 
M341.295563,90.533127 
	C339.542389,91.252182 336.508606,91.651413 336.236664,92.740379 
	C333.845123,102.316864 331.945435,112.016182 329.544159,123.360695 
	C336.068298,121.911285 341.725800,121.419258 346.737915,119.357948 
	C353.887146,116.417686 357.333527,108.141670 355.864258,100.199852 
	C354.730499,94.071609 350.798309,91.331757 341.295563,90.533127 
z"/>
<path fill="#8CC8E4" opacity="1.000000" stroke="none" 
	d="
M1072.083008,119.935234 
	C1065.154419,132.610336 1053.911865,138.012161 1040.686401,139.994034 
	C1034.945801,140.854309 1029.088501,140.935516 1022.703430,141.414093 
	C1020.124512,153.625961 1017.487427,166.113434 1014.811096,178.786652 
	C1007.590210,178.786652 1000.467773,178.786652 992.499878,178.786652 
	C1000.022156,143.139313 1007.488647,107.756310 1014.931702,72.484451 
	C1026.025024,72.484451 1036.887817,71.682693 1047.592163,72.644859 
	C1072.908691,74.920479 1078.619751,94.251022 1074.397339,113.498840 
	C1073.939209,115.586815 1072.965088,117.561569 1072.083008,119.935234 
M1053.094604,104.399567 
	C1052.783936,93.985580 1045.629395,88.339577 1035.449097,90.605675 
	C1034.559814,90.803642 1033.362915,91.816071 1033.177490,92.644684 
	C1031.016724,102.296219 1029.022827,111.985123 1026.982788,121.674133 
	C1041.116089,124.137650 1051.625366,117.389938 1053.094604,104.399567 
z"/>
<path fill="#8CC8E4" opacity="1.000000" stroke="none" 
	d="
M76.294319,73.625244 
	C79.558746,74.955421 82.451584,76.141945 85.861389,77.540497 
	C83.178467,83.329414 80.688881,88.701180 78.025681,94.447556 
	C76.415459,93.908394 75.090164,93.352303 73.710747,93.022659 
	C68.392517,91.751778 63.112400,90.060944 57.713776,89.453308 
	C51.072510,88.705803 45.803940,91.973198 43.784229,96.981445 
	C41.679855,102.199615 43.490715,108.220741 48.782516,112.491631 
	C53.051521,115.937050 57.714989,118.901138 61.916653,122.421104 
	C72.368782,131.177444 75.894165,142.456924 72.796303,155.603149 
	C69.810112,168.275421 60.819180,175.373688 48.858829,178.513275 
	C37.234531,181.564651 25.473516,181.219467 13.946211,177.185394 
	C9.378779,175.587006 6.745504,173.215759 7.389930,167.823395 
	C7.898001,163.572006 7.492028,159.211365 7.492028,154.223969 
	C11.604367,155.939194 15.109514,157.661804 18.782200,158.878784 
	C26.448360,161.419067 34.246960,162.961319 42.299450,160.528168 
	C50.536987,158.039093 53.836613,150.530182 49.168266,143.301682 
	C46.808327,139.647537 43.044533,136.871658 39.794956,133.827316 
	C35.314888,129.630188 30.002262,126.110924 26.301447,121.329735 
	C11.195297,101.813736 23.837021,73.889076 49.312920,71.293587 
	C58.018196,70.406693 67.043594,72.661964 76.294319,73.625244 
z"/>
<path fill="#8CC8E4" opacity="1.000000" stroke="none" 
	d="
M740.071411,154.676636 
	C742.594299,147.519257 739.969360,142.260284 734.938293,137.937317 
	C730.527161,134.147079 725.744507,130.783752 721.395203,126.928177 
	C711.409851,118.076347 707.723328,106.989792 711.229553,94.064194 
	C714.727600,81.168671 723.978699,74.056610 736.677673,71.572044 
	C750.150330,68.936081 763.081787,71.018761 775.767700,77.753365 
	C773.106445,83.434265 770.540649,88.911285 768.190552,93.927849 
	C761.475037,92.341644 755.435547,90.493103 749.257812,89.564407 
	C741.795166,88.442551 736.020813,91.539856 733.812317,96.915100 
	C731.544739,102.434158 733.491577,108.245537 739.488708,113.063736 
	C743.762146,116.497124 748.409180,119.480263 752.563354,123.044449 
	C762.798645,131.826157 765.868530,143.149719 762.748169,155.965759 
	C759.734375,168.344727 750.873169,175.463120 739.047302,178.447678 
	C726.411377,181.636673 713.704773,181.492630 701.436401,176.059464 
	C698.446594,174.735428 697.197083,172.958237 697.412231,169.582062 
	C697.726257,164.655350 697.492920,159.693741 697.492920,155.352112 
	C705.955627,157.520477 713.946106,160.211624 722.156067,161.468719 
	C728.779175,162.482834 735.551453,161.454803 740.071411,154.676636 
z"/>
<path fill="#033148" opacity="1.000000" stroke="none" 
	d="
M960.847961,106.568161 
	C961.572388,121.257545 959.647888,134.976669 951.991699,147.327576 
	C947.345947,154.822037 941.115479,160.383011 931.788391,161.209641 
	C920.191895,162.237366 912.436218,156.663956 911.336548,145.051819 
	C909.805542,128.884644 912.776855,113.492340 922.852783,100.181198 
	C924.728455,97.703354 927.174744,95.546013 929.683350,93.678200 
	C940.197388,85.849892 958.462524,87.252220 960.847961,106.568161 
z"/>
<path fill="#08374E" opacity="1.000000" stroke="none" 
	d="
M256.979614,121.893326 
	C257.256927,126.143074 257.509216,129.930054 257.789337,134.134644 
	C249.861084,134.134644 242.188721,134.134644 233.831680,134.134644 
	C240.827866,119.410896 247.667404,105.016769 254.991196,89.603531 
	C255.685684,100.861549 256.320129,111.146049 256.979614,121.893326 
z"/>
<path fill="#04334A" opacity="1.000000" stroke="none" 
	d="
M341.707886,90.578285 
	C350.798309,91.331757 354.730499,94.071609 355.864258,100.199852 
	C357.333527,108.141670 353.887146,116.417686 346.737915,119.357948 
	C341.725800,121.419258 336.068298,121.911285 329.544159,123.360695 
	C331.945435,112.016182 333.845123,102.316864 336.236664,92.740379 
	C336.508606,91.651413 339.542389,91.252182 341.707886,90.578285 
z"/>
<path fill="#05334A" opacity="1.000000" stroke="none" 
	d="
M1053.075195,104.833710 
	C1051.625366,117.389938 1041.116089,124.137650 1026.982788,121.674133 
	C1029.022827,111.985123 1031.016724,102.296219 1033.177490,92.644684 
	C1033.362915,91.816071 1034.559814,90.803642 1035.449097,90.605675 
	C1045.629395,88.339577 1052.783936,93.985580 1053.075195,104.833710 
z"/>
</svg>